<svg width="100" height="100" viewBox="0 0 100 100" fill="none" xmlns="http://www.w3.org/2000/svg">
<g id="Frame 64">
<rect id="Rectangle 43" x="0.5" y="0.5" width="99" height="99" fill="white" stroke="#E8E8E8"/>
<path id="Vector" d="M56.375 40.0009C56.1098 40.0009 55.8554 40.1063 55.6679 40.2938C55.4804 40.4814 55.375 40.7357 55.375 41.0009V51.3709C55.375 51.9014 55.1643 52.4101 54.7892 52.7851C54.4142 53.1602 53.9054 53.3709 53.375 53.3709H45.375L48.295 50.4509C48.4658 50.2646 48.5597 50.0204 48.5578 49.7677C48.5559 49.5149 48.4583 49.2722 48.2847 49.0884C48.1111 48.9047 47.8744 48.7935 47.6221 48.7773C47.3698 48.761 47.1207 48.8409 46.925 49.0009L42.295 53.6609C42.2037 53.7578 42.1294 53.8694 42.075 53.9909C41.975 54.2344 41.975 54.5075 42.075 54.7509C42.1256 54.8745 42.2004 54.9867 42.295 55.0809L46.925 59.7109C47.1113 59.8957 47.3627 59.9998 47.625 60.0009C47.7566 60.0017 47.8871 59.9765 48.0089 59.9267C48.1308 59.8769 48.2416 59.8036 48.335 59.7109C48.4287 59.618 48.5031 59.5074 48.5539 59.3855C48.6047 59.2636 48.6308 59.1329 48.6308 59.0009C48.6308 58.8689 48.6047 58.7382 48.5539 58.6163C48.5031 58.4945 48.4287 58.3839 48.335 58.2909L45.415 55.3709H53.415C54.4759 55.3709 55.4933 54.9495 56.2434 54.1993C56.9936 53.4492 57.415 52.4318 57.415 51.3709V41.0009C57.4151 40.8662 57.388 40.7328 57.3353 40.6088C57.2825 40.4848 57.2053 40.3727 57.1081 40.2793C57.011 40.1859 56.896 40.1131 56.77 40.0652C56.644 40.0174 56.5097 39.9955 56.375 40.0009Z" fill="#CCCCCC"/>
</g>
</svg>
